# AST/ASF file generated using VICON BodyLanguage
# -----------------------------------------------
:version 1.10
:name VICON
:units
  mass 1.0
  length 0.45
  angle deg
:documentation
   .ast/.asf automatically generated from VICON data using
   VICON BodyBuilder and BodyLanguage model FoxedUp or BRILLIANT.MOD
:root
   order TX TY TZ RX RY RZ
   axis XYZ
   position 0 0 0  
   orientation 0 0 0 
:bonedata
  begin
     id 1 
     name lhipjoint
     direction 0.561001 -0.76473 0.316963 
     length 2.4722 
     axis 0 0 0  XYZ
  end
  begin
     id 2 
     name lfemur
     direction 0.34202 -0.939693 0  
     length 7.59403  
     axis 0 0 20  XYZ
    dof rx ry rz
    limits (-160.0 20.0)
           (-70.0 70.0)
           (-60.0 70.0)
  end
  begin
     id 3 
     name ltibia
     direction 0.34202 -0.939693 0   
     length 7.89655   
     axis 0 0 20   XYZ
    dof rx
    limits (-10.0 170.0)
  end
  begin
     id 4 
     name lfoot
     direction 0.061296 -0.168409 0.98381   
     length 2.73287   
     axis -90 7.62852e-016 20   XYZ
    dof rx rz
    limits (-45.0 90.0)
           (-70.0 20.0)
  end
  begin
     id 5 
     name ltoes
     direction 1.53547e-011 -4.21984e-011 1   
     length 1.37057   
     axis -90 7.62852e-016 20   XYZ
    dof rx
    limits (-90.0 20.0)
  end
  begin
     id 6 
     name rhipjoint
     direction -0.559611 -0.765599 0.317323   
     length 2.46939  
     axis 0 0 0  XYZ 
  end
  begin
     id 7 
     name rfemur
     direction -0.34202 -0.939693 0   
     length 7.53712   
     axis 0 0 -20   XYZ
    dof rx ry rz
    limits (-160.0 20.0)
           (-70.0 70.0)
           (-70.0 60.0)
  end
  begin
     id 8 
     name rtibia
     direction -0.34202 -0.939693 0   
     length 8.12549   
     axis 0 0 -20   XYZ
    dof rx
    limits (-10.0 170.0)
 end
 begin
     id 9 
     name rfoot
     direction -0.066984 -0.184037 0.980634   
     length 2.67541  
     axis -90 -7.62852e-016 -20   XYZ
    dof rx rz
    limits (-45.0 90.0)
           (-20.0 70.0)
  end
  begin
     id 10 
     name rtoes
     direction -1.53549e-011 -4.21786e-011 1   
     length 1.34085   
     axis -90 -7.62852e-016 -20   XYZ
    dof rx
    limits (-90.0 20.0)
  end
  begin
     id 11 
     name lowerback
     direction -0.0522728 0.992594 -0.109658   
     length 2.05633   
     axis 0 0 0   XYZ
    dof rx ry rz
    limits (-20.0 45.0)
           (-30.0 30.0)
           (-30.0 30.0)
  end
  begin
     id 12 
     name upperback
     direction 0.00589338 0.999977 0.00335704   
     length 2.05845   
     axis 0 0 0   XYZ
    dof rx ry rz
    limits (-20.0 45.0)
           (-30.0 30.0)
           (-30.0 30.0)
  end
  begin
     id 13 
     name thorax
     direction 0.0292928 0.998059 0.0549487   
     length 2.09281   
     axis 0 0 0   XYZ
    dof rx ry rz
    limits (-20.0 45.0)
           (-30.0 30.0)
           (-30.0 30.0)
  end
  begin
     id 14 
     name lowerneck
     direction 0.0356368 0.980775 0.191858   
     length 1.84767   
     axis 0 0 0   XYZ
    dof rx ry rz
    limits (-20.0 45.0)
           (-30.0 30.0)
           (-30.0 30.0)
  end
  begin
     id 15 
     name upperneck
     direction -0.0227605 0.98931 -0.14404   
     length 1.89582   
     axis 0 0 0   XYZ
    dof rx ry rz
    limits (-20.0 45.0)
           (-30.0 30.0)
           (-30.0 30.0)
  end
  begin
     id 16
     name head
     direction -0.00932985 0.997511 -0.0698904  
     length 1.90213  
     axis 0 0 0   XYZ
    dof rx ry rz
    limits (-20.0 45.0)
           (-30.0 30.0)
           (-30.0 30.0)
  end
  begin
     id 17 
     name lclavicle
     direction 0.873442 0.479511 0.0846686  
     length 3.41193  
     axis 0 0 0   XYZ
    dof ry rz
    limits (-20.0 10.0)
           (0.0 20.0)
  end
  begin
     id 18 
     name lhumerus
     direction 1 -4.4897e-011 -5.62117e-018   
     length 5.59864   
     axis 180 -30 -90   XYZ
    dof rx ry rz
    limits (-60.0 90.0)
           (-90.0 90.0)
           (-90.0 90.0)
  end
  begin
     id 19
     name lradius
     direction 1 -4.48966e-011 -6.26295e-027   
     length 3.59542   
     axis 180 -30 -90   XYZ
    dof rx
    limits (-10.0 170.0)
  end
  begin
     id 20
     name lwrist
     direction 1 -4.48947e-011 -1.74096e-026   
     length 1.79771   
     axis 1.04567e-014 90 90   XYZ
    dof ry
    limits (-180.0 0.0)
 end
  begin
     id 21 
     name lhand
     direction 1 -4.49085e-011 -3.48469e-026   
     length 0.572014   
     axis 2.22196e-014 90 90   XYZ
    dof rx rz
    limits (-90.0 90.0)
           (-45.0 45.0)
  end
  begin
     id 22 
     name lfingers
     direction 1 -4.48884e-011 -6.96135e-026   
     length 0.461173   
     axis 4.44383e-014 90 90   XYZ
    dof rx
    limits (0.0 90.0)
  end
  begin
     id 23
     name lthumb
     direction 0.707107 -6.34976e-011 0.707107   
     length 0.662154   
     axis -90 45 -5.4397e-014   XYZ
    dof rx rz
    limits (-45.0 45.0)
           (-45.0 45.0)
  end
  begin
     id 24 
     name rclavicle
     direction -0.890242 0.443271 0.104786   
     length 3.46753  
     axis 0 0 0   XYZ 
    dof ry rz
    limits (-10.0 20.0)
           (-20.0 0.0)
  end
  begin
     id 25 
     name rhumerus
     direction -1 -4.48963e-011 -5.41723e-018  
     length 5.8094   
     axis 180 30 90   XYZ
    dof rx ry rz
    limits (-90.0 60.0)
           (-90.0 90.0)
           (-90.0 90.0)
  end
  begin
     id 26 
     name rradius
     direction -1 -4.48958e-011 -6.51059e-027   
     length 3.66953   
     axis 180 30 90   XYZ
    dof rx
    limits (-10.0 170.0)
  end
  begin
     id 27 
     name rwrist
     direction -1 -4.48975e-011 -1.74124e-026   
     length 1.83476   
     axis 1.04567e-014 -90 -90   XYZ
    dof ry
    limits (-180.0 0.0)
  end
  begin
     id 28
     name rhand
     direction -1 -4.49013e-011 -3.48326e-026   
     length 0.57843   
     axis 2.22196e-014 -90 -90   XYZ
    dof rx rz
    limits (-90.0 90.0)
           (-45.0 45.0)
  end
  begin
     id 29
     name rfingers
     direction -1 -4.49023e-011 -6.9669e-026   
     length 0.466345   
     axis 4.44383e-014 -90 -90   XYZ
    dof rx
    limits (0.0 90.0)
  end
  begin
     id 30
     name rthumb
     direction -0.707107 -6.34926e-011 0.707107   
     length 0.669581   
     axis -90 -45 5.4397e-014   XYZ
    dof rx rz
    limits (-45.0 45.0)
           (-45.0 45.0)
  end
:hierarchy
  begin
    root lhipjoint rhipjoint lowerback
    lhipjoint lfemur
    lfemur ltibia
    ltibia lfoot
    lfoot ltoes
    rhipjoint rfemur
    rfemur rtibia
    rtibia rfoot
    rfoot rtoes
    lowerback upperback
    upperback thorax
    thorax lowerneck lclavicle rclavicle
    lowerneck upperneck
    upperneck head
    lclavicle lhumerus
    lhumerus lradius
    lradius lwrist
    lwrist lhand lthumb
    lhand lfingers
    rclavicle rhumerus
    rhumerus rradius
    rradius rwrist
    rwrist rhand rthumb
    rhand rfingers
  end

#!OML:ASF H:\SkateBoarding\Project 1\Capture day 1\Session 1\Skater.ASF
:FULLY-SPECIFIED
:DEGREES
146
root -7.37352 19.284 16.3424 6.89637 110.418 3.87872
lowerback 8.81095 -0.913748 -7.17508
upperback -0.54437 -2.014 -1.80856
thorax -5.34515 -0.788719 2.39834
lowerneck -9.16613 -8.23255 -4.14518
upperneck 45.1504 -8.4634 0.140769
head 18.9788 -3.10878 -0.369129
rclavicle -7.21588e-014 5.08889e-014
rhumerus -48.4772 -9.09499 -68.2261
rradius 41.3358
rwrist -10.4641
rhand -10.3912 -27.321
rfingers 7.12502
rthumb 15.6069 -56.7114
lclavicle -7.21588e-014 5.08889e-014
lhumerus -45.6091 -4.64062 85.8138
lradius 69.6785
lwrist 23.8592
lhand -9.51036 28.619
lfingers 7.12502
lthumb 16.4551 57.9411
rfemur -12.7054 3.30563 17.1376
rtibia 49.0336
rfoot -19.6256 15.529
rtoes 7.64436
lfemur -14.4754 -15.3942 -12.3025
ltibia 49.4748
lfoot -36.7515 2.78576
ltoes -27.679
147
root -7.28105 19.2686 16.6653 7.05679 110.417 4.13269
lowerback 8.85086 -0.9116 -7.17226
upperback -0.525969 -2.01391 -1.83742
thorax -5.34938 -0.788896 2.36732
lowerneck -9.15462 -8.20789 -4.10375
upperneck 45.1802 -8.3981 0.067184
head 18.9831 -3.08449 -0.399321
rclavicle -2.18663e-015 1.59028e-015
rhumerus -48.4838 -8.99582 -68.8705
rradius 41.3092
rwrist -10.3873
rhand -10.7291 -27.1377
rfingers 7.12502
rthumb 15.2815 -56.5532
lclavicle -2.18663e-015 1.59028e-015
lhumerus -45.9296 -4.49357 85.8015
lradius 69.0033
lwrist 23.6077
lhand -10.1344 28.4256
lfingers 7.12502
lthumb 15.8542 57.7965
rfemur -12.8107 3.21239 17.3338
rtibia 49.2871
rfoot -19.5166 15.6105
rtoes 7.58323
lfemur -14.4695 -15.3254 -12.0736
ltibia 49.6438
lfoot -36.7601 2.73397
ltoes -27.6322
148
root -7.18858 19.254 16.9869 7.24779 110.41 4.41271
lowerback 8.89115 -0.916552 -7.1571
upperback -0.513035 -2.0223 -1.85938
thorax -5.35898 -0.793348 2.33779
lowerneck -9.14596 -8.17527 -4.06031
upperneck 45.2172 -8.31571 -0.0159371
head 18.9916 -3.05389 -0.43153
rclavicle 2.42517e-014 -2.70347e-014
rhumerus -48.4721 -8.83918 -69.5002
rradius 41.3018
rwrist -10.3375
rhand -11.0556 -26.9604
rfingers 7.12502
rthumb 14.967 -56.3995
lclavicle 2.42517e-014 -2.70347e-014
lhumerus -46.2306 -4.36076 85.7798
lradius 68.319
lwrist 23.3608
lhand -10.8346 28.2054
lfingers 7.12502
lthumb 15.1799 57.6286
rfemur -12.9158 3.11941 17.5478
rtibia 49.5227
rfoot -19.4333 15.6834
rtoes 7.48519
lfemur -14.4681 -15.2733 -11.8305
ltibia 49.8089
lfoot -36.7694 2.69472
ltoes -27.5669
149
root -7.09663 19.2402 17.3081 7.45874 110.401 4.69953
lowerback 8.933 -0.92711 -7.14197
upperback -0.506127 -2.03857 -1.8751
thorax -5.37491 -0.801345 2.31594
lowerneck -9.14405 -8.13681 -4.01617
upperneck 45.2578 -8.22266 -0.101996
head 19.004 -3.0191 -0.463729
rclavicle 6.95746e-015 2.54444e-014
rhumerus -48.445 -8.63808 -70.111
rradius 41.3192
rwrist -10.322
rhand -11.3627 -26.8073
rfingers 7.12502
rthumb 14.671 -56.2682
lclavicle 6.95746e-015 2.54444e-014
lhumerus -46.4976 -4.24142 85.7463
lradius 67.6224
lwrist 23.1136
lhand -11.5391 27.9688
lfingers 7.12502
lthumb 14.5011 57.4421
rfemur -13.0382 3.02815 17.7735
rtibia 49.7495
rfoot -19.3832 15.7329
rtoes 7.33852
lfemur -14.4857 -15.2395 -11.5758
ltibia 49.9682
lfoot -36.7694 2.66674
ltoes -27.4878
150
root -7.00535 19.2272 17.6286 7.65223 110.396 4.9617
lowerback 8.98391 -0.938717 -7.13256
upperback -0.502311 -2.05785 -1.89122
thorax -5.39882 -0.810301 2.29752
lowerneck -9.1462 -8.09825 -3.96885
upperneck 45.2986 -8.13101 -0.186706
head 19.0178 -2.9841 -0.496328
rclavicle 7.35503e-015 -3.18055e-015
rhumerus -48.4115 -8.43284 -70.6836
rradius 41.3558
rwrist -10.3198
rhand -11.6337 -26.6606
rfingers 7.12502
rthumb 14.4099 -56.1404
lclavicle 7.35503e-015 -3.18055e-015
lhumerus -46.7246 -4.1648 85.7066
lradius 66.9137
lwrist 22.8826
lhand -12.2253 27.7382
lfingers 7.12502
lthumb 13.8399 57.2578
rfemur -13.1733 2.93828 17.9969
rtibia 49.976
rfoot -19.354 15.7682
rtoes 7.18517
lfemur -14.5138 -15.2285 -11.326
ltibia 50.119
lfoot -36.7575 2.65181
ltoes -27.3972
151
root -6.91421 19.215 17.9478 7.82236 110.384 5.19733
lowerback 9.03751 -0.950958 -7.12999
upperback -0.498268 -2.07882 -1.90482
thorax -5.42356 -0.819843 2.28588
lowerneck -9.15014 -8.05738 -3.93208
upperneck 45.3333 -8.03801 -0.261649
head 19.03 -2.94945 -0.5223
rclavicle 3.71727e-014 3.81667e-014
rhumerus -48.3696 -8.21252 -71.2146
rradius 41.4121
rwrist -10.3418
rhand -11.8796 -26.5284
rfingers 7.12502
rthumb 14.173 -56.025
lclavicle 3.71727e-014 3.81667e-014
lhumerus -46.9096 -4.10658 85.6611
lradius 66.1946
lwrist 22.6608
lhand -12.8392 27.5231
lfingers 7.12502
lthumb 13.2482 57.0821
rfemur -13.3189 2.86229 18.2122
rtibia 50.2104
rfoot -19.3344 15.7937
rtoes 7.02984
lfemur -14.5378 -15.2307 -11.0907
ltibia 50.2574
lfoot -36.7409 2.6529
ltoes -27.3045
152
root -6.82348 19.2037 18.2662 7.94065 110.371 5.36784
lowerback 9.08983 -0.959834 -7.14783
upperback -0.49419 -2.0974 -1.92405
thorax -5.44733 -0.827592 2.27935
lowerneck -9.15664 -8.02077 -3.89052
upperneck 45.3578 -7.95825 -0.32909
head 19.0368 -2.91893 -0.547993
rclavicle -3.24019e-014 -3.02153e-014
rhumerus -48.3232 -8.00453 -71.7042
rradius 41.4829
rwrist -10.3892
rhand -12.1095 -26.4082
rfingers 7.12502
rthumb 13.9515 -55.9201
lclavicle -3.24019e-014 -3.02153e-014
lhumerus -47.0425 -4.08951 85.6099
lradius 65.4627
lwrist 22.4539
lhand -13.3598 27.331
lfingers 7.12502
lthumb 12.7463 56.922
rfemur -13.489 2.79904 18.4034
rtibia 50.461
rfoot -19.3162 15.8094
rtoes 6.89551
lfemur -14.5689 -15.2466 -10.8805
ltibia 50.3809
lfoot -36.7176 2.66064
ltoes -27.2066
153
root -6.733 19.1931 18.5836 7.99191 110.348 5.46175
lowerback 9.13933 -0.965686 -7.19113
upperback -0.48902 -2.1143 -1.9462
thorax -5.46778 -0.833832 2.28364
lowerneck -9.16194 -7.98665 -3.86076
upperneck 45.3704 -7.88624 -0.384836
head 19.0378 -2.89277 -0.567365
rclavicle 1.80894e-014 -6.36111e-014
rhumerus -48.2709 -7.78499 -72.1548
rradius 41.5659
rwrist -10.4724
rhand -12.3347 -26.2966
rfingers 7.12502
rthumb 13.7345 -55.8233
lclavicle 1.80894e-014 -6.36111e-014
lhumerus -47.1258 -4.09711 85.5579
lradius 64.7175
lwrist 22.2636
lhand -13.7872 27.166
lfingers 7.12502
lthumb 12.3342 56.7821
rfemur -13.6812 2.75238 18.5607
rtibia 50.7329
rfoot -19.2868 15.8169
rtoes 6.7767
lfemur -14.5951 -15.2688 -10.7074
ltibia 50.4872
lfoot -36.6959 2.68355
ltoes -27.1168
154
root -6.64258 19.1832 18.8995 7.96157 110.315 5.47056
lowerback 9.18983 -0.969646 -7.26111
upperback -0.481939 -2.1315 -1.97203
thorax -5.48602 -0.839458 2.29897
lowerneck -9.16103 -7.95303 -3.84827
upperneck 45.3692 -7.81815 -0.4269
head 19.0306 -2.87024 -0.577551
rclavicle -5.38706e-014 -1.74931e-014
rhumerus -48.2098 -7.54552 -72.5702
rradius 41.649
rwrist -10.5869
rhand -12.5723 -26.1904
rfingers 7.12502
rthumb 13.5055 -55.7325
lclavicle -5.38706e-014 -1.74931e-014
lhumerus -47.1654 -4.11964 85.5021
lradius 63.9632
lwrist 22.096
lhand -14.1135 27.0262
lfingers 7.12502
lthumb 12.0196 56.661
rfemur -13.8868 2.72493 18.678
rtibia 51.0289
rfoot -19.2395 15.8253
rtoes 6.69162
lfemur -14.6054 -15.2934 -10.5804
ltibia 50.5762
lfoot -36.6834 2.72499
ltoes -27.0467
155
root -6.55248 19.1739 19.2142 7.8582 110.27 5.401
lowerback 9.24104 -0.966914 -7.3517
upperback -0.471978 -2.14205 -2.00646
thorax -5.50184 -0.841269 2.31584
lowerneck -9.15734 -7.92426 -3.84049
upperneck 45.3537 -7.76387 -0.457463
head 19.0148 -2.85344 -0.583691
rclavicle 2.68359e-014 3.02153e-014
rhumerus -48.144 -7.29444 -72.9603
rradius 41.7301
rwrist -10.7309
rhand -12.8335 -26.088
rfingers 7.12502
rthumb 13.2537 -55.6466
lclavicle 2.68359e-014 3.02153e-014
lhumerus -47.1582 -4.17266 85.4418
lradius 63.205
lwrist 21.9518
lhand -14.344 26.9233
lfingers 7.12502
lthumb 11.7974 56.571
rfemur -14.1101 2.71529 18.7566
rtibia 51.3487
rfoot -19.177 15.8305
rtoes 6.62346
lfemur -14.6028 -15.316 -10.4951
ltibia 50.6479
lfoot -36.6823 2.7759
ltoes -26.9855
156
root -6.46268 19.1653 19.5276 7.69018 110.213 5.26678
lowerback 9.29363 -0.960149 -7.45503
upperback -0.457656 -2.14862 -2.04881
thorax -5.51405 -0.840898 2.33094
lowerneck -9.15078 -7.8975 -3.83402
upperneck 45.3262 -7.71714 -0.481929
head 18.9911 -2.8399 -0.587836
rclavicle -3.39922e-014 2.54444e-014
rhumerus -48.0677 -7.01385 -73.3356
rradius 41.8005
rwrist -10.9006
rhand -13.1163 -25.9799
rfingers 7.12502
rthumb 12.981 -55.556
lclavicle -3.39922e-014 2.54444e-014
lhumerus -47.108 -4.25419 85.3752
lradius 62.4429
lwrist 21.8364
lhand -14.488 26.85
lfingers 7.12502
lthumb 11.6585 56.5057
rfemur -14.3441 2.72034 18.8009
rtibia 51.6874
rfoot -19.098 15.8326
rtoes 6.56255
lfemur -14.5808 -15.3311 -10.4479
ltibia 50.7038
lfoot -36.696 2.83294
ltoes -26.9401
